<mxfile host="app.diagrams.net" modified="2023-06-01T21:45:51.140Z" agent="Mozilla/5.0 (Windows NT 10.0; Win64; x64) AppleWebKit/537.36 (KHTML, like Gecko) Chrome/113.0.0.0 Safari/537.36" etag="rxqmB72R2TtKcLmPd-4m" version="21.3.6" type="device">
  <diagram name="Page-1" id="AFTp-tnqyc6Ku0ymOfTm">
    <mxGraphModel dx="1523" dy="879" grid="1" gridSize="10" guides="1" tooltips="1" connect="1" arrows="1" fold="1" page="1" pageScale="1" pageWidth="850" pageHeight="1100" math="0" shadow="0">
      <root>
        <mxCell id="0" />
        <mxCell id="1" parent="0" />
        <mxCell id="D5TujPH7qEi7B5UwbqdQ-1" value="" style="endArrow=none;html=1;rounded=0;" edge="1" parent="1">
          <mxGeometry width="50" height="50" relative="1" as="geometry">
            <mxPoint x="240" y="200" as="sourcePoint" />
            <mxPoint x="240" y="80" as="targetPoint" />
          </mxGeometry>
        </mxCell>
        <mxCell id="D5TujPH7qEi7B5UwbqdQ-2" value="" style="endArrow=none;html=1;rounded=0;" edge="1" parent="1">
          <mxGeometry width="50" height="50" relative="1" as="geometry">
            <mxPoint x="240" y="200" as="sourcePoint" />
            <mxPoint x="320" y="200" as="targetPoint" />
          </mxGeometry>
        </mxCell>
        <mxCell id="D5TujPH7qEi7B5UwbqdQ-3" value="" style="endArrow=none;html=1;rounded=0;" edge="1" parent="1">
          <mxGeometry width="50" height="50" relative="1" as="geometry">
            <mxPoint x="320" y="200" as="sourcePoint" />
            <mxPoint x="320" y="80" as="targetPoint" />
          </mxGeometry>
        </mxCell>
        <mxCell id="D5TujPH7qEi7B5UwbqdQ-4" value="empty stack&amp;nbsp;" style="text;html=1;strokeColor=none;fillColor=none;align=center;verticalAlign=middle;whiteSpace=wrap;rounded=0;" vertex="1" parent="1">
          <mxGeometry x="40" y="110" width="70" height="30" as="geometry" />
        </mxCell>
        <mxCell id="D5TujPH7qEi7B5UwbqdQ-5" value="" style="endArrow=none;html=1;rounded=0;" edge="1" parent="1">
          <mxGeometry width="50" height="50" relative="1" as="geometry">
            <mxPoint x="240" y="350" as="sourcePoint" />
            <mxPoint x="240" y="230" as="targetPoint" />
          </mxGeometry>
        </mxCell>
        <mxCell id="D5TujPH7qEi7B5UwbqdQ-6" value="" style="endArrow=none;html=1;rounded=0;" edge="1" parent="1">
          <mxGeometry width="50" height="50" relative="1" as="geometry">
            <mxPoint x="240" y="350" as="sourcePoint" />
            <mxPoint x="320" y="350" as="targetPoint" />
          </mxGeometry>
        </mxCell>
        <mxCell id="D5TujPH7qEi7B5UwbqdQ-7" value="" style="endArrow=none;html=1;rounded=0;" edge="1" parent="1">
          <mxGeometry width="50" height="50" relative="1" as="geometry">
            <mxPoint x="320" y="350" as="sourcePoint" />
            <mxPoint x="320" y="230" as="targetPoint" />
          </mxGeometry>
        </mxCell>
        <mxCell id="D5TujPH7qEi7B5UwbqdQ-8" value="push operation&amp;nbsp;" style="text;html=1;strokeColor=none;fillColor=none;align=center;verticalAlign=middle;whiteSpace=wrap;rounded=0;" vertex="1" parent="1">
          <mxGeometry x="30" y="270" width="90" height="30" as="geometry" />
        </mxCell>
        <mxCell id="D5TujPH7qEi7B5UwbqdQ-9" value="the top is -1&amp;nbsp;" style="text;html=1;strokeColor=none;fillColor=none;align=center;verticalAlign=middle;whiteSpace=wrap;rounded=0;" vertex="1" parent="1">
          <mxGeometry x="350" y="120" width="80" height="20" as="geometry" />
        </mxCell>
        <mxCell id="D5TujPH7qEi7B5UwbqdQ-11" value="" style="endArrow=none;html=1;rounded=0;" edge="1" parent="1">
          <mxGeometry width="50" height="50" relative="1" as="geometry">
            <mxPoint x="410" y="350" as="sourcePoint" />
            <mxPoint x="410" y="230" as="targetPoint" />
          </mxGeometry>
        </mxCell>
        <mxCell id="D5TujPH7qEi7B5UwbqdQ-12" value="" style="endArrow=none;html=1;rounded=0;" edge="1" parent="1">
          <mxGeometry width="50" height="50" relative="1" as="geometry">
            <mxPoint x="410" y="350" as="sourcePoint" />
            <mxPoint x="490" y="350" as="targetPoint" />
          </mxGeometry>
        </mxCell>
        <mxCell id="D5TujPH7qEi7B5UwbqdQ-13" value="" style="endArrow=none;html=1;rounded=0;" edge="1" parent="1">
          <mxGeometry width="50" height="50" relative="1" as="geometry">
            <mxPoint x="490" y="350" as="sourcePoint" />
            <mxPoint x="490" y="230" as="targetPoint" />
          </mxGeometry>
        </mxCell>
        <mxCell id="D5TujPH7qEi7B5UwbqdQ-14" value="" style="endArrow=classic;html=1;rounded=0;" edge="1" parent="1">
          <mxGeometry width="50" height="50" relative="1" as="geometry">
            <mxPoint x="340" y="240" as="sourcePoint" />
            <mxPoint x="390" y="240" as="targetPoint" />
          </mxGeometry>
        </mxCell>
        <mxCell id="D5TujPH7qEi7B5UwbqdQ-15" value="" style="endArrow=none;html=1;rounded=0;" edge="1" parent="1">
          <mxGeometry width="50" height="50" relative="1" as="geometry">
            <mxPoint x="410" y="320" as="sourcePoint" />
            <mxPoint x="490" y="320" as="targetPoint" />
          </mxGeometry>
        </mxCell>
        <mxCell id="D5TujPH7qEi7B5UwbqdQ-31" value="" style="edgeStyle=orthogonalEdgeStyle;rounded=0;orthogonalLoop=1;jettySize=auto;html=1;" edge="1" parent="1" source="D5TujPH7qEi7B5UwbqdQ-16" target="D5TujPH7qEi7B5UwbqdQ-30">
          <mxGeometry relative="1" as="geometry" />
        </mxCell>
        <mxCell id="D5TujPH7qEi7B5UwbqdQ-16" value="1" style="text;html=1;strokeColor=none;fillColor=none;align=center;verticalAlign=middle;whiteSpace=wrap;rounded=0;" vertex="1" parent="1">
          <mxGeometry x="420" y="320" width="60" height="30" as="geometry" />
        </mxCell>
        <mxCell id="D5TujPH7qEi7B5UwbqdQ-17" value="" style="endArrow=none;html=1;rounded=0;" edge="1" parent="1">
          <mxGeometry width="50" height="50" relative="1" as="geometry">
            <mxPoint x="580" y="349.2" as="sourcePoint" />
            <mxPoint x="580" y="229.2" as="targetPoint" />
          </mxGeometry>
        </mxCell>
        <mxCell id="D5TujPH7qEi7B5UwbqdQ-18" value="" style="endArrow=none;html=1;rounded=0;" edge="1" parent="1">
          <mxGeometry width="50" height="50" relative="1" as="geometry">
            <mxPoint x="580" y="349.2" as="sourcePoint" />
            <mxPoint x="660" y="349.2" as="targetPoint" />
          </mxGeometry>
        </mxCell>
        <mxCell id="D5TujPH7qEi7B5UwbqdQ-19" value="" style="endArrow=none;html=1;rounded=0;" edge="1" parent="1">
          <mxGeometry width="50" height="50" relative="1" as="geometry">
            <mxPoint x="660" y="349.2" as="sourcePoint" />
            <mxPoint x="660" y="229.2" as="targetPoint" />
          </mxGeometry>
        </mxCell>
        <mxCell id="D5TujPH7qEi7B5UwbqdQ-20" value="" style="endArrow=classic;html=1;rounded=0;" edge="1" parent="1">
          <mxGeometry width="50" height="50" relative="1" as="geometry">
            <mxPoint x="510" y="240" as="sourcePoint" />
            <mxPoint x="560" y="240" as="targetPoint" />
          </mxGeometry>
        </mxCell>
        <mxCell id="D5TujPH7qEi7B5UwbqdQ-21" value="" style="endArrow=none;html=1;rounded=0;" edge="1" parent="1">
          <mxGeometry width="50" height="50" relative="1" as="geometry">
            <mxPoint x="580" y="319.2" as="sourcePoint" />
            <mxPoint x="660" y="319.2" as="targetPoint" />
          </mxGeometry>
        </mxCell>
        <mxCell id="D5TujPH7qEi7B5UwbqdQ-22" value="1" style="text;html=1;strokeColor=none;fillColor=none;align=center;verticalAlign=middle;whiteSpace=wrap;rounded=0;" vertex="1" parent="1">
          <mxGeometry x="590" y="319.2" width="60" height="30" as="geometry" />
        </mxCell>
        <mxCell id="D5TujPH7qEi7B5UwbqdQ-23" value="" style="endArrow=none;html=1;rounded=0;" edge="1" parent="1">
          <mxGeometry width="50" height="50" relative="1" as="geometry">
            <mxPoint x="580" y="290.31" as="sourcePoint" />
            <mxPoint x="660" y="290.31" as="targetPoint" />
          </mxGeometry>
        </mxCell>
        <mxCell id="D5TujPH7qEi7B5UwbqdQ-37" value="" style="edgeStyle=orthogonalEdgeStyle;rounded=0;orthogonalLoop=1;jettySize=auto;html=1;" edge="1" parent="1" source="D5TujPH7qEi7B5UwbqdQ-24" target="D5TujPH7qEi7B5UwbqdQ-36">
          <mxGeometry relative="1" as="geometry" />
        </mxCell>
        <mxCell id="D5TujPH7qEi7B5UwbqdQ-24" value="2" style="text;html=1;strokeColor=none;fillColor=none;align=center;verticalAlign=middle;whiteSpace=wrap;rounded=0;" vertex="1" parent="1">
          <mxGeometry x="590" y="289.2" width="60" height="30" as="geometry" />
        </mxCell>
        <mxCell id="D5TujPH7qEi7B5UwbqdQ-30" value="top" style="whiteSpace=wrap;html=1;" vertex="1" parent="1">
          <mxGeometry x="330" y="327.5" width="50" height="15" as="geometry" />
        </mxCell>
        <mxCell id="D5TujPH7qEi7B5UwbqdQ-36" value="top" style="whiteSpace=wrap;html=1;" vertex="1" parent="1">
          <mxGeometry x="500" y="296.39" width="50" height="15" as="geometry" />
        </mxCell>
        <mxCell id="D5TujPH7qEi7B5UwbqdQ-45" value="" style="endArrow=none;html=1;rounded=0;" edge="1" parent="1">
          <mxGeometry width="50" height="50" relative="1" as="geometry">
            <mxPoint x="750" y="349.2" as="sourcePoint" />
            <mxPoint x="750" y="229.2" as="targetPoint" />
          </mxGeometry>
        </mxCell>
        <mxCell id="D5TujPH7qEi7B5UwbqdQ-46" value="" style="endArrow=none;html=1;rounded=0;" edge="1" parent="1">
          <mxGeometry width="50" height="50" relative="1" as="geometry">
            <mxPoint x="750" y="349.2" as="sourcePoint" />
            <mxPoint x="830" y="349.2" as="targetPoint" />
          </mxGeometry>
        </mxCell>
        <mxCell id="D5TujPH7qEi7B5UwbqdQ-47" value="" style="endArrow=none;html=1;rounded=0;" edge="1" parent="1">
          <mxGeometry width="50" height="50" relative="1" as="geometry">
            <mxPoint x="830" y="349.2" as="sourcePoint" />
            <mxPoint x="830" y="229.2" as="targetPoint" />
          </mxGeometry>
        </mxCell>
        <mxCell id="D5TujPH7qEi7B5UwbqdQ-48" value="" style="endArrow=none;html=1;rounded=0;" edge="1" parent="1">
          <mxGeometry width="50" height="50" relative="1" as="geometry">
            <mxPoint x="750" y="319.2" as="sourcePoint" />
            <mxPoint x="830" y="319.2" as="targetPoint" />
          </mxGeometry>
        </mxCell>
        <mxCell id="D5TujPH7qEi7B5UwbqdQ-49" value="1" style="text;html=1;strokeColor=none;fillColor=none;align=center;verticalAlign=middle;whiteSpace=wrap;rounded=0;" vertex="1" parent="1">
          <mxGeometry x="760" y="319.2" width="60" height="30" as="geometry" />
        </mxCell>
        <mxCell id="D5TujPH7qEi7B5UwbqdQ-50" value="" style="endArrow=none;html=1;rounded=0;" edge="1" parent="1">
          <mxGeometry width="50" height="50" relative="1" as="geometry">
            <mxPoint x="750" y="290.31" as="sourcePoint" />
            <mxPoint x="830" y="290.31" as="targetPoint" />
          </mxGeometry>
        </mxCell>
        <mxCell id="D5TujPH7qEi7B5UwbqdQ-52" value="2" style="text;html=1;strokeColor=none;fillColor=none;align=center;verticalAlign=middle;whiteSpace=wrap;rounded=0;" vertex="1" parent="1">
          <mxGeometry x="760" y="289.2" width="60" height="30" as="geometry" />
        </mxCell>
        <mxCell id="D5TujPH7qEi7B5UwbqdQ-53" value="" style="endArrow=none;html=1;rounded=0;" edge="1" parent="1">
          <mxGeometry width="50" height="50" relative="1" as="geometry">
            <mxPoint x="750" y="260" as="sourcePoint" />
            <mxPoint x="830" y="260" as="targetPoint" />
          </mxGeometry>
        </mxCell>
        <mxCell id="D5TujPH7qEi7B5UwbqdQ-57" value="" style="edgeStyle=orthogonalEdgeStyle;rounded=0;orthogonalLoop=1;jettySize=auto;html=1;" edge="1" parent="1" source="D5TujPH7qEi7B5UwbqdQ-54" target="D5TujPH7qEi7B5UwbqdQ-56">
          <mxGeometry relative="1" as="geometry" />
        </mxCell>
        <mxCell id="D5TujPH7qEi7B5UwbqdQ-54" value="3" style="text;html=1;strokeColor=none;fillColor=none;align=center;verticalAlign=middle;whiteSpace=wrap;rounded=0;" vertex="1" parent="1">
          <mxGeometry x="760" y="259.2" width="60" height="30" as="geometry" />
        </mxCell>
        <mxCell id="D5TujPH7qEi7B5UwbqdQ-56" value="top" style="whiteSpace=wrap;html=1;" vertex="1" parent="1">
          <mxGeometry x="670" y="266.7" width="50" height="15" as="geometry" />
        </mxCell>
        <mxCell id="D5TujPH7qEi7B5UwbqdQ-58" value="" style="endArrow=classic;html=1;rounded=0;" edge="1" parent="1">
          <mxGeometry width="50" height="50" relative="1" as="geometry">
            <mxPoint x="680" y="240" as="sourcePoint" />
            <mxPoint x="730" y="240" as="targetPoint" />
          </mxGeometry>
        </mxCell>
        <mxCell id="D5TujPH7qEi7B5UwbqdQ-59" value="pop operation&amp;nbsp;" style="text;html=1;strokeColor=none;fillColor=none;align=center;verticalAlign=middle;whiteSpace=wrap;rounded=0;" vertex="1" parent="1">
          <mxGeometry x="30" y="496.5" width="90" height="30" as="geometry" />
        </mxCell>
        <mxCell id="D5TujPH7qEi7B5UwbqdQ-60" value="" style="endArrow=none;html=1;rounded=0;" edge="1" parent="1">
          <mxGeometry width="50" height="50" relative="1" as="geometry">
            <mxPoint x="240" y="549" as="sourcePoint" />
            <mxPoint x="240" y="429" as="targetPoint" />
          </mxGeometry>
        </mxCell>
        <mxCell id="D5TujPH7qEi7B5UwbqdQ-61" value="" style="endArrow=none;html=1;rounded=0;" edge="1" parent="1">
          <mxGeometry width="50" height="50" relative="1" as="geometry">
            <mxPoint x="240" y="549" as="sourcePoint" />
            <mxPoint x="320" y="549" as="targetPoint" />
          </mxGeometry>
        </mxCell>
        <mxCell id="D5TujPH7qEi7B5UwbqdQ-62" value="" style="endArrow=none;html=1;rounded=0;" edge="1" parent="1">
          <mxGeometry width="50" height="50" relative="1" as="geometry">
            <mxPoint x="320" y="549" as="sourcePoint" />
            <mxPoint x="320" y="429" as="targetPoint" />
          </mxGeometry>
        </mxCell>
        <mxCell id="D5TujPH7qEi7B5UwbqdQ-63" value="" style="endArrow=none;html=1;rounded=0;" edge="1" parent="1">
          <mxGeometry width="50" height="50" relative="1" as="geometry">
            <mxPoint x="240" y="519" as="sourcePoint" />
            <mxPoint x="320" y="519" as="targetPoint" />
          </mxGeometry>
        </mxCell>
        <mxCell id="D5TujPH7qEi7B5UwbqdQ-64" value="1" style="text;html=1;strokeColor=none;fillColor=none;align=center;verticalAlign=middle;whiteSpace=wrap;rounded=0;" vertex="1" parent="1">
          <mxGeometry x="250" y="519" width="60" height="30" as="geometry" />
        </mxCell>
        <mxCell id="D5TujPH7qEi7B5UwbqdQ-65" value="" style="endArrow=none;html=1;rounded=0;" edge="1" parent="1">
          <mxGeometry width="50" height="50" relative="1" as="geometry">
            <mxPoint x="240" y="490.11" as="sourcePoint" />
            <mxPoint x="320" y="490.11" as="targetPoint" />
          </mxGeometry>
        </mxCell>
        <mxCell id="D5TujPH7qEi7B5UwbqdQ-66" value="2" style="text;html=1;strokeColor=none;fillColor=none;align=center;verticalAlign=middle;whiteSpace=wrap;rounded=0;" vertex="1" parent="1">
          <mxGeometry x="250" y="489" width="60" height="30" as="geometry" />
        </mxCell>
        <mxCell id="D5TujPH7qEi7B5UwbqdQ-67" value="" style="endArrow=none;html=1;rounded=0;" edge="1" parent="1">
          <mxGeometry width="50" height="50" relative="1" as="geometry">
            <mxPoint x="240" y="459.8" as="sourcePoint" />
            <mxPoint x="320" y="459.8" as="targetPoint" />
          </mxGeometry>
        </mxCell>
        <mxCell id="D5TujPH7qEi7B5UwbqdQ-70" value="" style="edgeStyle=orthogonalEdgeStyle;rounded=0;orthogonalLoop=1;jettySize=auto;html=1;" edge="1" parent="1" source="D5TujPH7qEi7B5UwbqdQ-68" target="D5TujPH7qEi7B5UwbqdQ-69">
          <mxGeometry relative="1" as="geometry" />
        </mxCell>
        <mxCell id="D5TujPH7qEi7B5UwbqdQ-68" value="3" style="text;html=1;strokeColor=none;fillColor=none;align=center;verticalAlign=middle;whiteSpace=wrap;rounded=0;" vertex="1" parent="1">
          <mxGeometry x="250" y="459" width="60" height="30" as="geometry" />
        </mxCell>
        <mxCell id="D5TujPH7qEi7B5UwbqdQ-69" value="top" style="whiteSpace=wrap;html=1;" vertex="1" parent="1">
          <mxGeometry x="170" y="466.5" width="50" height="15" as="geometry" />
        </mxCell>
        <mxCell id="D5TujPH7qEi7B5UwbqdQ-71" value="" style="endArrow=classic;html=1;rounded=0;exitX=-0.035;exitY=1.01;exitDx=0;exitDy=0;exitPerimeter=0;" edge="1" parent="1" source="D5TujPH7qEi7B5UwbqdQ-99">
          <mxGeometry width="50" height="50" relative="1" as="geometry">
            <mxPoint x="340" y="440" as="sourcePoint" />
            <mxPoint x="400" y="440" as="targetPoint" />
          </mxGeometry>
        </mxCell>
        <mxCell id="D5TujPH7qEi7B5UwbqdQ-82" value="" style="endArrow=none;html=1;rounded=0;" edge="1" parent="1">
          <mxGeometry width="50" height="50" relative="1" as="geometry">
            <mxPoint x="409.6" y="549" as="sourcePoint" />
            <mxPoint x="409.6" y="429" as="targetPoint" />
          </mxGeometry>
        </mxCell>
        <mxCell id="D5TujPH7qEi7B5UwbqdQ-83" value="" style="endArrow=none;html=1;rounded=0;" edge="1" parent="1">
          <mxGeometry width="50" height="50" relative="1" as="geometry">
            <mxPoint x="409.6" y="549" as="sourcePoint" />
            <mxPoint x="489.6" y="549" as="targetPoint" />
          </mxGeometry>
        </mxCell>
        <mxCell id="D5TujPH7qEi7B5UwbqdQ-84" value="" style="endArrow=none;html=1;rounded=0;" edge="1" parent="1">
          <mxGeometry width="50" height="50" relative="1" as="geometry">
            <mxPoint x="489.6" y="549" as="sourcePoint" />
            <mxPoint x="489.6" y="429" as="targetPoint" />
          </mxGeometry>
        </mxCell>
        <mxCell id="D5TujPH7qEi7B5UwbqdQ-85" value="" style="endArrow=none;html=1;rounded=0;" edge="1" parent="1">
          <mxGeometry width="50" height="50" relative="1" as="geometry">
            <mxPoint x="409.6" y="519" as="sourcePoint" />
            <mxPoint x="489.6" y="519" as="targetPoint" />
          </mxGeometry>
        </mxCell>
        <mxCell id="D5TujPH7qEi7B5UwbqdQ-86" value="1" style="text;html=1;strokeColor=none;fillColor=none;align=center;verticalAlign=middle;whiteSpace=wrap;rounded=0;" vertex="1" parent="1">
          <mxGeometry x="419.6" y="519" width="60" height="30" as="geometry" />
        </mxCell>
        <mxCell id="D5TujPH7qEi7B5UwbqdQ-87" value="" style="endArrow=none;html=1;rounded=0;" edge="1" parent="1">
          <mxGeometry width="50" height="50" relative="1" as="geometry">
            <mxPoint x="409.6" y="490.11" as="sourcePoint" />
            <mxPoint x="489.6" y="490.11" as="targetPoint" />
          </mxGeometry>
        </mxCell>
        <mxCell id="D5TujPH7qEi7B5UwbqdQ-103" value="" style="edgeStyle=orthogonalEdgeStyle;rounded=0;orthogonalLoop=1;jettySize=auto;html=1;" edge="1" parent="1" source="D5TujPH7qEi7B5UwbqdQ-88" target="D5TujPH7qEi7B5UwbqdQ-102">
          <mxGeometry relative="1" as="geometry" />
        </mxCell>
        <mxCell id="D5TujPH7qEi7B5UwbqdQ-88" value="2" style="text;html=1;strokeColor=none;fillColor=none;align=center;verticalAlign=middle;whiteSpace=wrap;rounded=0;" vertex="1" parent="1">
          <mxGeometry x="419.6" y="489" width="60" height="30" as="geometry" />
        </mxCell>
        <mxCell id="D5TujPH7qEi7B5UwbqdQ-89" value="inserting&amp;nbsp;" style="text;html=1;strokeColor=none;fillColor=none;align=center;verticalAlign=middle;whiteSpace=wrap;rounded=0;" vertex="1" parent="1">
          <mxGeometry x="330" y="210" width="60" height="30" as="geometry" />
        </mxCell>
        <mxCell id="D5TujPH7qEi7B5UwbqdQ-97" value="inserting&amp;nbsp;" style="text;html=1;strokeColor=none;fillColor=none;align=center;verticalAlign=middle;whiteSpace=wrap;rounded=0;" vertex="1" parent="1">
          <mxGeometry x="500" y="210" width="60" height="30" as="geometry" />
        </mxCell>
        <mxCell id="D5TujPH7qEi7B5UwbqdQ-98" value="inserting&amp;nbsp;" style="text;html=1;strokeColor=none;fillColor=none;align=center;verticalAlign=middle;whiteSpace=wrap;rounded=0;" vertex="1" parent="1">
          <mxGeometry x="670" y="210" width="60" height="30" as="geometry" />
        </mxCell>
        <mxCell id="D5TujPH7qEi7B5UwbqdQ-99" value="removing&amp;nbsp;" style="text;html=1;strokeColor=none;fillColor=none;align=center;verticalAlign=middle;whiteSpace=wrap;rounded=0;" vertex="1" parent="1">
          <mxGeometry x="330" y="410" width="60" height="30" as="geometry" />
        </mxCell>
        <mxCell id="D5TujPH7qEi7B5UwbqdQ-100" value="3" style="rounded=0;whiteSpace=wrap;html=1;rotation=-15;" vertex="1" parent="1">
          <mxGeometry x="409.6" y="390" width="80" height="20" as="geometry" />
        </mxCell>
        <mxCell id="D5TujPH7qEi7B5UwbqdQ-101" value="" style="endArrow=classic;html=1;rounded=0;" edge="1" parent="1" source="D5TujPH7qEi7B5UwbqdQ-100">
          <mxGeometry width="50" height="50" relative="1" as="geometry">
            <mxPoint x="380" y="480" as="sourcePoint" />
            <mxPoint x="390" y="380" as="targetPoint" />
            <Array as="points">
              <mxPoint x="440" y="380" />
              <mxPoint x="420" y="370" />
              <mxPoint x="400" y="370" />
            </Array>
          </mxGeometry>
        </mxCell>
        <mxCell id="D5TujPH7qEi7B5UwbqdQ-102" value="top" style="whiteSpace=wrap;html=1;" vertex="1" parent="1">
          <mxGeometry x="335" y="496.5" width="50" height="15" as="geometry" />
        </mxCell>
        <mxCell id="D5TujPH7qEi7B5UwbqdQ-105" value="peek operation&amp;nbsp;" style="text;html=1;strokeColor=none;fillColor=none;align=center;verticalAlign=middle;whiteSpace=wrap;rounded=0;" vertex="1" parent="1">
          <mxGeometry x="20" y="674.84" width="90" height="30" as="geometry" />
        </mxCell>
        <mxCell id="D5TujPH7qEi7B5UwbqdQ-106" value="" style="endArrow=none;html=1;rounded=0;" edge="1" parent="1">
          <mxGeometry width="50" height="50" relative="1" as="geometry">
            <mxPoint x="239.69000000000003" y="744.69" as="sourcePoint" />
            <mxPoint x="239.69000000000003" y="624.69" as="targetPoint" />
          </mxGeometry>
        </mxCell>
        <mxCell id="D5TujPH7qEi7B5UwbqdQ-107" value="" style="endArrow=none;html=1;rounded=0;" edge="1" parent="1">
          <mxGeometry width="50" height="50" relative="1" as="geometry">
            <mxPoint x="239.69000000000003" y="744.69" as="sourcePoint" />
            <mxPoint x="319.69000000000005" y="744.69" as="targetPoint" />
          </mxGeometry>
        </mxCell>
        <mxCell id="D5TujPH7qEi7B5UwbqdQ-108" value="" style="endArrow=none;html=1;rounded=0;" edge="1" parent="1">
          <mxGeometry width="50" height="50" relative="1" as="geometry">
            <mxPoint x="319.69000000000005" y="744.69" as="sourcePoint" />
            <mxPoint x="319.69000000000005" y="624.69" as="targetPoint" />
          </mxGeometry>
        </mxCell>
        <mxCell id="D5TujPH7qEi7B5UwbqdQ-109" value="" style="endArrow=none;html=1;rounded=0;" edge="1" parent="1">
          <mxGeometry width="50" height="50" relative="1" as="geometry">
            <mxPoint x="239.69000000000003" y="714.69" as="sourcePoint" />
            <mxPoint x="319.69000000000005" y="714.69" as="targetPoint" />
          </mxGeometry>
        </mxCell>
        <mxCell id="D5TujPH7qEi7B5UwbqdQ-110" value="1" style="text;html=1;strokeColor=none;fillColor=none;align=center;verticalAlign=middle;whiteSpace=wrap;rounded=0;" vertex="1" parent="1">
          <mxGeometry x="249.69000000000003" y="714.69" width="60" height="30" as="geometry" />
        </mxCell>
        <mxCell id="D5TujPH7qEi7B5UwbqdQ-111" value="" style="endArrow=none;html=1;rounded=0;" edge="1" parent="1">
          <mxGeometry width="50" height="50" relative="1" as="geometry">
            <mxPoint x="239.69000000000003" y="685.8" as="sourcePoint" />
            <mxPoint x="319.69000000000005" y="685.8" as="targetPoint" />
          </mxGeometry>
        </mxCell>
        <mxCell id="D5TujPH7qEi7B5UwbqdQ-114" style="edgeStyle=orthogonalEdgeStyle;rounded=0;orthogonalLoop=1;jettySize=auto;html=1;entryX=1;entryY=0.5;entryDx=0;entryDy=0;" edge="1" parent="1" source="D5TujPH7qEi7B5UwbqdQ-112" target="D5TujPH7qEi7B5UwbqdQ-113">
          <mxGeometry relative="1" as="geometry" />
        </mxCell>
        <mxCell id="D5TujPH7qEi7B5UwbqdQ-112" value="2" style="text;html=1;strokeColor=none;fillColor=none;align=center;verticalAlign=middle;whiteSpace=wrap;rounded=0;" vertex="1" parent="1">
          <mxGeometry x="249.69000000000003" y="684.69" width="60" height="30" as="geometry" />
        </mxCell>
        <mxCell id="D5TujPH7qEi7B5UwbqdQ-113" value="top" style="whiteSpace=wrap;html=1;" vertex="1" parent="1">
          <mxGeometry x="160" y="640" width="50" height="15" as="geometry" />
        </mxCell>
        <mxCell id="D5TujPH7qEi7B5UwbqdQ-115" value="2" style="rounded=0;whiteSpace=wrap;html=1;" vertex="1" parent="1">
          <mxGeometry x="360" y="674.84" width="40" height="20.31" as="geometry" />
        </mxCell>
        <mxCell id="D5TujPH7qEi7B5UwbqdQ-116" value="return the top of the stack&amp;nbsp;" style="text;html=1;strokeColor=none;fillColor=none;align=center;verticalAlign=middle;whiteSpace=wrap;rounded=0;" vertex="1" parent="1">
          <mxGeometry x="430" y="674.84" width="110" height="30" as="geometry" />
        </mxCell>
        <mxCell id="D5TujPH7qEi7B5UwbqdQ-117" value="is empty operation&amp;nbsp;" style="text;html=1;strokeColor=none;fillColor=none;align=center;verticalAlign=middle;whiteSpace=wrap;rounded=0;" vertex="1" parent="1">
          <mxGeometry x="20" y="880" width="90" height="30" as="geometry" />
        </mxCell>
        <mxCell id="D5TujPH7qEi7B5UwbqdQ-118" value="" style="endArrow=none;html=1;rounded=0;" edge="1" parent="1">
          <mxGeometry width="50" height="50" relative="1" as="geometry">
            <mxPoint x="239.69000000000003" y="950" as="sourcePoint" />
            <mxPoint x="239.69000000000003" y="830" as="targetPoint" />
          </mxGeometry>
        </mxCell>
        <mxCell id="D5TujPH7qEi7B5UwbqdQ-119" value="" style="endArrow=none;html=1;rounded=0;" edge="1" parent="1">
          <mxGeometry width="50" height="50" relative="1" as="geometry">
            <mxPoint x="239.69000000000003" y="950" as="sourcePoint" />
            <mxPoint x="319.69000000000005" y="950" as="targetPoint" />
          </mxGeometry>
        </mxCell>
        <mxCell id="D5TujPH7qEi7B5UwbqdQ-120" value="" style="endArrow=none;html=1;rounded=0;" edge="1" parent="1">
          <mxGeometry width="50" height="50" relative="1" as="geometry">
            <mxPoint x="319.69000000000005" y="950" as="sourcePoint" />
            <mxPoint x="319.69000000000005" y="830" as="targetPoint" />
          </mxGeometry>
        </mxCell>
        <mxCell id="D5TujPH7qEi7B5UwbqdQ-121" value="" style="endArrow=none;html=1;rounded=0;" edge="1" parent="1">
          <mxGeometry width="50" height="50" relative="1" as="geometry">
            <mxPoint x="239.69000000000003" y="920" as="sourcePoint" />
            <mxPoint x="319.69000000000005" y="920" as="targetPoint" />
          </mxGeometry>
        </mxCell>
        <mxCell id="D5TujPH7qEi7B5UwbqdQ-122" value="1" style="text;html=1;strokeColor=none;fillColor=none;align=center;verticalAlign=middle;whiteSpace=wrap;rounded=0;" vertex="1" parent="1">
          <mxGeometry x="249.69000000000005" y="920" width="60" height="30" as="geometry" />
        </mxCell>
        <mxCell id="D5TujPH7qEi7B5UwbqdQ-123" value="" style="endArrow=none;html=1;rounded=0;" edge="1" parent="1">
          <mxGeometry width="50" height="50" relative="1" as="geometry">
            <mxPoint x="239.69000000000003" y="891.1099999999999" as="sourcePoint" />
            <mxPoint x="319.69000000000005" y="891.1099999999999" as="targetPoint" />
          </mxGeometry>
        </mxCell>
        <mxCell id="D5TujPH7qEi7B5UwbqdQ-124" style="edgeStyle=orthogonalEdgeStyle;rounded=0;orthogonalLoop=1;jettySize=auto;html=1;entryX=1;entryY=0.5;entryDx=0;entryDy=0;" edge="1" parent="1" source="D5TujPH7qEi7B5UwbqdQ-125" target="D5TujPH7qEi7B5UwbqdQ-126">
          <mxGeometry relative="1" as="geometry" />
        </mxCell>
        <mxCell id="D5TujPH7qEi7B5UwbqdQ-125" value="2" style="text;html=1;strokeColor=none;fillColor=none;align=center;verticalAlign=middle;whiteSpace=wrap;rounded=0;" vertex="1" parent="1">
          <mxGeometry x="249.69000000000005" y="890" width="60" height="30" as="geometry" />
        </mxCell>
        <mxCell id="D5TujPH7qEi7B5UwbqdQ-126" value="top" style="whiteSpace=wrap;html=1;" vertex="1" parent="1">
          <mxGeometry x="160" y="845.31" width="50" height="15" as="geometry" />
        </mxCell>
        <mxCell id="D5TujPH7qEi7B5UwbqdQ-145" value="&lt;font style=&quot;font-size: 18px;&quot;&gt;check of the top is not to be -1&amp;nbsp;&lt;/font&gt;" style="text;html=1;strokeColor=none;fillColor=none;align=center;verticalAlign=middle;whiteSpace=wrap;rounded=0;" vertex="1" parent="1">
          <mxGeometry x="350" y="880" width="130.8" height="50" as="geometry" />
        </mxCell>
        <mxCell id="D5TujPH7qEi7B5UwbqdQ-146" value="size operation&amp;nbsp;" style="text;html=1;strokeColor=none;fillColor=none;align=center;verticalAlign=middle;whiteSpace=wrap;rounded=0;" vertex="1" parent="1">
          <mxGeometry x="20" y="1050" width="90" height="30" as="geometry" />
        </mxCell>
        <mxCell id="D5TujPH7qEi7B5UwbqdQ-147" value="" style="endArrow=none;html=1;rounded=0;" edge="1" parent="1">
          <mxGeometry width="50" height="50" relative="1" as="geometry">
            <mxPoint x="239.69000000000003" y="1099" as="sourcePoint" />
            <mxPoint x="239.69000000000003" y="979" as="targetPoint" />
          </mxGeometry>
        </mxCell>
        <mxCell id="D5TujPH7qEi7B5UwbqdQ-148" value="" style="endArrow=none;html=1;rounded=0;" edge="1" parent="1">
          <mxGeometry width="50" height="50" relative="1" as="geometry">
            <mxPoint x="239.69000000000003" y="1099" as="sourcePoint" />
            <mxPoint x="319.69000000000005" y="1099" as="targetPoint" />
          </mxGeometry>
        </mxCell>
        <mxCell id="D5TujPH7qEi7B5UwbqdQ-149" value="" style="endArrow=none;html=1;rounded=0;" edge="1" parent="1">
          <mxGeometry width="50" height="50" relative="1" as="geometry">
            <mxPoint x="319.69000000000005" y="1099" as="sourcePoint" />
            <mxPoint x="319.69000000000005" y="979" as="targetPoint" />
          </mxGeometry>
        </mxCell>
        <mxCell id="D5TujPH7qEi7B5UwbqdQ-150" value="" style="endArrow=none;html=1;rounded=0;" edge="1" parent="1">
          <mxGeometry width="50" height="50" relative="1" as="geometry">
            <mxPoint x="239.69000000000003" y="1069" as="sourcePoint" />
            <mxPoint x="319.69000000000005" y="1069" as="targetPoint" />
          </mxGeometry>
        </mxCell>
        <mxCell id="D5TujPH7qEi7B5UwbqdQ-151" value="1" style="text;html=1;strokeColor=none;fillColor=none;align=center;verticalAlign=middle;whiteSpace=wrap;rounded=0;" vertex="1" parent="1">
          <mxGeometry x="249.69000000000005" y="1069" width="60" height="30" as="geometry" />
        </mxCell>
        <mxCell id="D5TujPH7qEi7B5UwbqdQ-152" value="" style="endArrow=none;html=1;rounded=0;" edge="1" parent="1">
          <mxGeometry width="50" height="50" relative="1" as="geometry">
            <mxPoint x="239.69000000000003" y="1040.11" as="sourcePoint" />
            <mxPoint x="319.69000000000005" y="1040.11" as="targetPoint" />
          </mxGeometry>
        </mxCell>
        <mxCell id="D5TujPH7qEi7B5UwbqdQ-153" style="edgeStyle=orthogonalEdgeStyle;rounded=0;orthogonalLoop=1;jettySize=auto;html=1;entryX=1;entryY=0.5;entryDx=0;entryDy=0;" edge="1" parent="1" source="D5TujPH7qEi7B5UwbqdQ-154" target="D5TujPH7qEi7B5UwbqdQ-155">
          <mxGeometry relative="1" as="geometry" />
        </mxCell>
        <mxCell id="D5TujPH7qEi7B5UwbqdQ-154" value="2" style="text;html=1;strokeColor=none;fillColor=none;align=center;verticalAlign=middle;whiteSpace=wrap;rounded=0;" vertex="1" parent="1">
          <mxGeometry x="249.69000000000005" y="1039" width="60" height="30" as="geometry" />
        </mxCell>
        <mxCell id="D5TujPH7qEi7B5UwbqdQ-155" value="top" style="whiteSpace=wrap;html=1;" vertex="1" parent="1">
          <mxGeometry x="160" y="994.31" width="50" height="15" as="geometry" />
        </mxCell>
        <mxCell id="D5TujPH7qEi7B5UwbqdQ-156" value="&lt;font style=&quot;font-size: 18px;&quot;&gt;to get&amp;nbsp; the top and add 1 on it to get the size&lt;/font&gt;" style="text;html=1;strokeColor=none;fillColor=none;align=center;verticalAlign=middle;whiteSpace=wrap;rounded=0;" vertex="1" parent="1">
          <mxGeometry x="344.6" y="1019" width="210" height="50" as="geometry" />
        </mxCell>
      </root>
    </mxGraphModel>
  </diagram>
</mxfile>
